<svg xmlns="http://www.w3.org/2000/svg" xmlns:xlink="http://www.w3.org/1999/xlink" viewBox="0 0 1163.7 162.44"><defs><style>.cls-1,.cls-3,.cls-4{fill:#100e10;}.cls-1{clip-rule:evenodd;}.cls-2{isolation:isolate;}.cls-4{fill-rule:evenodd;}.cls-5{clip-path:url(#clip-path);}</style><clipPath id="clip-path"><path class="cls-1" d="M84.34,15.39A6.47,6.47,0,0,0,83.86,13a6.5,6.5,0,0,0-3.42-3.42,6.29,6.29,0,0,0-4.82,0,6.24,6.24,0,0,0-2,1.38,6.06,6.06,0,0,0-1.37,2,6.17,6.17,0,0,0,0,4.82,6.06,6.06,0,0,0,1.37,2,6.27,6.27,0,0,0,8.9,0,6.24,6.24,0,0,0,1.38-2,6.51,6.51,0,0,0,.48-2.41M83.05,78a5,5,0,0,0-10,0,5,5,0,0,0,1.48,3.54,5.06,5.06,0,0,0,1.62,1.1,5,5,0,0,0,3.84,0,5.06,5.06,0,0,0,1.62-1.1A5,5,0,0,0,83.05,78Zm4.12-9.14A12.84,12.84,0,0,1,90,73.08,13,13,0,0,1,90,83a13,13,0,0,1-7,7,13,13,0,0,1-9.92,0,13,13,0,0,1-7-7,12.9,12.9,0,0,1,0-9.91,12.93,12.93,0,0,1,11.93-8,13.1,13.1,0,0,1,5,1A12.8,12.8,0,0,1,87.17,68.89ZM147,78a6.32,6.32,0,0,0-.48-2.41,6.46,6.46,0,0,0-1.38-2,6.06,6.06,0,0,0-2-1.37,6.29,6.29,0,0,0-2.41-.49,6.51,6.51,0,0,0-2.41.48,6.4,6.4,0,0,0-2,1.38,6.27,6.27,0,0,0-1.37,2,6.17,6.17,0,0,0,0,4.82,6.44,6.44,0,0,0,3.41,3.42,6.29,6.29,0,0,0,4.82,0,6.24,6.24,0,0,0,2-1.38,6.35,6.35,0,0,0,1.38-2A6.28,6.28,0,0,0,147,78Zm4.58-10.88a15.28,15.28,0,0,1,3.33,5,15.4,15.4,0,0,1-25.1,16.79,15.27,15.27,0,0,1-3.33-5,15.46,15.46,0,0,1,0-11.8,15.39,15.39,0,0,1,25.1-5ZM21.7,78a6.33,6.33,0,0,0-1.86-4.45,6.18,6.18,0,0,0-2.05-1.38,6.27,6.27,0,0,0-4.81,0,6.5,6.5,0,0,0-3.42,3.42,6.24,6.24,0,0,0,1.38,6.86,6.24,6.24,0,0,0,2,1.38,6.29,6.29,0,0,0,4.82,0,6.24,6.24,0,0,0,2-1.38A6.33,6.33,0,0,0,21.7,78Zm62.64,62.64a6.51,6.51,0,0,0-.48-2.41,6.44,6.44,0,0,0-3.42-3.41,6.17,6.17,0,0,0-4.82,0,6.37,6.37,0,0,0-3.41,3.41,6.17,6.17,0,0,0,0,4.82,6.16,6.16,0,0,0,1.37,2,6.46,6.46,0,0,0,2,1.38,6.24,6.24,0,0,0,6.86-1.38,6,6,0,0,0,1.38-2A6.47,6.47,0,0,0,84.34,140.67ZM88.91,4.5a15.46,15.46,0,0,1,4.51,10.88,15.42,15.42,0,0,1-1.84,7.3l12.53,12.53a12.65,12.65,0,1,1-6.26,6.26L85.32,28.94a15.43,15.43,0,0,1-3.08,1.25,15.38,15.38,0,0,1-11.5-1.25L58.21,41.47a12.68,12.68,0,0,1,1,7.07A12.65,12.65,0,0,1,48.54,59.22a12.68,12.68,0,0,1-7.07-1L28.94,70.74a15.38,15.38,0,0,1,0,14.58L41.47,97.85a12.63,12.63,0,0,1,14.17,2.57,12.46,12.46,0,0,1,3.57,7.1,12.67,12.67,0,0,1-1,7.07l12.53,12.53a15.38,15.38,0,0,1,14.58,0L97.85,114.6a12.63,12.63,0,1,1,6.26,6.26L91.59,133.38a15.75,15.75,0,0,1,1.24,3.08,15.36,15.36,0,0,1-.59,10.12,15.38,15.38,0,0,1-8.31,8.31,15.46,15.46,0,0,1-11.8,0,15.36,15.36,0,0,1-9.48-14.21,15.8,15.8,0,0,1,.58-4.22,15.63,15.63,0,0,1,1.24-3.08L52,120.86a12.68,12.68,0,0,1-7.07,1A12.64,12.64,0,0,1,34.2,111.18a12.7,12.7,0,0,1,1-7.07L22.68,91.59a16.27,16.27,0,0,1-3.08,1.24,15.33,15.33,0,0,1-10.11-.59,15.36,15.36,0,0,1-8.32-8.31,15.46,15.46,0,0,1,0-11.8,15.41,15.41,0,0,1,21.51-7.66L35.2,51.94a12.76,12.76,0,0,1-1-7.07A12.65,12.65,0,0,1,44.87,34.2a12.81,12.81,0,0,1,7.08,1L64.48,22.68a14.85,14.85,0,0,1-1.25-3.08,15.33,15.33,0,0,1,.59-10.11,15.36,15.36,0,0,1,8.31-8.32A15.42,15.42,0,0,1,88.91,4.5Z"/></clipPath></defs><g id="Ebene_2" data-name="Ebene 2"><g id="Ebene_1-2" data-name="Ebene 1"><g id="Gruppe"><g id="Sea_side" data-name="Sea side" class="cls-2"><g class="cls-2"><path class="cls-3" d="M270.46,45.24c1.1-2.21,2.21-3.76,4.64-3.76a3.26,3.26,0,0,1,2.77,1.22,7.05,7.05,0,0,1,1,3.54l6.31,62.59c.11,1.11.22,2.32.22,3.1,0,1.66-1,2.65-3.43,2.65s-3.32-1-3.54-3.1l-5.64-56.95-24.33,51.65c-.88,1.88-1.66,3.31-3.87,3.31-1.77,0-2.65-1-3.76-3.31L216.93,54.42l-6.08,57.06c-.22,2-1.11,3.1-3.54,3.1s-3.32-1-3.32-2.76c0-.56.11-1.55.22-2.66L211.29,46c.22-1.76.44-2.76,1.11-3.53a3.53,3.53,0,0,1,2.76-1c2.33,0,3.54,1.33,4.65,3.76l25,53.86Z"/><path class="cls-3" d="M329.28,40.48c22.45,0,36.28,15.27,36.28,37.49s-14.16,37.61-36.72,37.61-36.27-15.27-36.27-37.49S306.72,40.48,329.28,40.48Zm-.11,69c17.59,0,29-11.5,29-31.4S346.53,46.57,329,46.57,300,58.07,300,78,311.59,109.49,329.17,109.49Z"/><path class="cls-3" d="M408.94,107.72a4.44,4.44,0,0,1,2.77.56,3.48,3.48,0,0,1,0,5.08,4.44,4.44,0,0,1-2.77.56H379.53c-2.66,0-3.43-1.11-3.43-3.43V45.57a4.82,4.82,0,0,1,.55-2.87c.55-.78,1.55-1.11,3-1.11a3.39,3.39,0,0,1,3,1.11,4.82,4.82,0,0,1,.55,2.87v62.15Z"/><path class="cls-3" d="M457.38,107.72a4.44,4.44,0,0,1,2.77.56,3.48,3.48,0,0,1,0,5.08,4.44,4.44,0,0,1-2.77.56H428c-2.66,0-3.43-1.11-3.43-3.43V45.57a4.82,4.82,0,0,1,.55-2.87c.55-.78,1.55-1.11,3-1.11a3.39,3.39,0,0,1,3,1.11,4.82,4.82,0,0,1,.55,2.87v62.15Z"/><path class="cls-3" d="M480.05,110.6a4.86,4.86,0,0,1-.55,2.88,3.42,3.42,0,0,1-3,1.1c-1.44,0-2.44-.33-3-1.1a4.86,4.86,0,0,1-.55-2.88v-65a4.82,4.82,0,0,1,.55-2.87c.55-.78,1.55-1.11,3-1.11a3.39,3.39,0,0,1,3,1.11,4.82,4.82,0,0,1,.55,2.87Z"/><path class="cls-3" d="M506.49,72h19.24a4.4,4.4,0,0,1,2.76.56,3.46,3.46,0,0,1,0,5.08,4.4,4.4,0,0,1-2.76.56H506.49v29.52h26.76a4.4,4.4,0,0,1,2.76.56,3.46,3.46,0,0,1,0,5.08,4.4,4.4,0,0,1-2.76.56H503c-2.55,0-3.43-1.11-3.43-3.43V45.79c0-2.43.88-3.43,3.43-3.43h26.87a4.39,4.39,0,0,1,2.76.56,2.92,2.92,0,0,1,1.11,2.54A2.94,2.94,0,0,1,532.58,48a4.46,4.46,0,0,1-2.76.55H506.49Z"/></g><g class="cls-2"><path class="cls-3" d="M592.85,104.41a27.24,27.24,0,0,0,10.4-2.11c4.31-1.76,6.08-3.53,8.18-3.53,3.1,0,4.87,3.65,4.87,6s-1.77,4.09-4.42,5.75c-5.2,3.21-12.5,4.75-19.25,4.75-19.24,0-36.38-12.6-36.38-37.6s17.25-36.82,36.38-36.82c7.19,0,14.16,1.66,19.25,4.75,2.87,1.77,4.42,3.43,4.42,5.75s-1.77,6.2-4.87,6.2c-2.1,0-4.2-1.77-8.51-3.54a26.43,26.43,0,0,0-10.73-2.32c-11.61,0-23.33,7.18-23.33,25.65S580.58,104.41,592.85,104.41Z"/><path class="cls-3" d="M658,40.6c22.67,0,37,15.92,37,37.26,0,21.79-14.82,37.61-37.49,37.61s-37-15.93-37-37.27C620.5,56.41,635.32,40.6,658,40.6Zm-.12,64.47c15.27,0,24.56-9.95,24.56-26.87,0-17.26-9.51-27.21-24.78-27.21s-24.55,9.95-24.55,26.87C633.11,95.12,642.62,105.07,657.88,105.07Z"/><path class="cls-3" d="M715.17,107.72c0,2.11,0,3.65-.88,4.87s-2.54,2-5,2-4.2-.77-5.09-2-.88-2.76-.88-4.87V46.46c0-3.21,2-5,5.64-5,4.2,0,5.86,2.43,9.07,6.3l36.27,44.9V48.34c0-2.1,0-3.54.89-4.76s2.54-2,5-2,4.1.77,5,2,1,2.66,1,4.76v61.49c0,3.2-2,5-5.42,5-3.65,0-5.42-2.1-8.74-6.19L715.17,63.27Z"/><path class="cls-3" d="M791.48,107.72c0,2.11,0,3.65-.88,4.87s-2.55,2-5,2-4.2-.77-5.09-2-.88-2.76-.88-4.87V46.46c0-3.21,2-5,5.64-5,4.2,0,5.86,2.43,9.07,6.3l36.27,44.9V48.34c0-2.1,0-3.54.89-4.76s2.54-2,5-2,4.09.77,5,2,1,2.66,1,4.76v61.49c0,3.2-2,5-5.42,5-3.64,0-5.41-2.1-8.73-6.19L791.48,63.27Z"/><path class="cls-3" d="M868,70.23h15.37a6.78,6.78,0,0,1,4.32,1c1.1.77,1.88,2.1,1.88,4.42s-.78,3.76-1.88,4.54-2.55.88-4.32.88H868v22h22.34a6.79,6.79,0,0,1,4.31,1c1.11.78,1.88,2.11,1.88,4.43s-.77,3.76-1.88,4.53-2.54.89-4.31.89H861.82c-4.43,0-5.86-1.77-5.86-5.86V48.23c0-4.32,1.66-5.87,5.86-5.87h25.66a6.83,6.83,0,0,1,4.31,1c1.1.77,1.88,2.1,1.88,4.42s-.78,3.76-1.88,4.54-2.55.88-4.31.88H868Z"/><path class="cls-3" d="M938.24,104.41a27.16,27.16,0,0,0,10.39-2.11c4.32-1.76,6.08-3.53,8.19-3.53,3.09,0,4.86,3.65,4.86,6s-1.77,4.09-4.42,5.75c-5.2,3.21-12.5,4.75-19.24,4.75-19.25,0-36.39-12.6-36.39-37.6S918.88,40.82,938,40.82c7.18,0,14.15,1.66,19.24,4.75,2.87,1.77,4.42,3.43,4.42,5.75s-1.77,6.2-4.86,6.2c-2.11,0-4.21-1.77-8.52-3.54a26.39,26.39,0,0,0-10.73-2.32c-11.61,0-23.33,7.18-23.33,25.65S926,104.41,938.24,104.41Z"/><path class="cls-3" d="M1007.91,107.72c0,2.11,0,3.65-.88,4.87a6.65,6.65,0,0,1-5.2,2c-2.44,0-4.32-.77-5.31-2s-.88-2.76-.88-4.87V53.2h-17c-1.88,0-3.2,0-4.42-.88s-1.88-2.21-1.88-4.54.77-3.65,1.88-4.42,2.54-1,4.42-1h46.45a6.8,6.8,0,0,1,4.31,1c1.11.77,1.88,2.1,1.88,4.42s-.77,3.76-1.88,4.54-2.54.88-4.31.88h-17.14Z"/><path class="cls-3" d="M1069.4,40.6c22.67,0,37,15.92,37,37.26,0,21.79-14.82,37.61-37.49,37.61s-37-15.93-37-37.27C1031.91,56.41,1046.73,40.6,1069.4,40.6Zm-.11,64.47c15.26,0,24.55-9.95,24.55-26.87,0-17.26-9.51-27.21-24.77-27.21s-24.55,9.95-24.55,26.87C1044.52,95.12,1054,105.07,1069.29,105.07Z"/><path class="cls-3" d="M1124.59,107.72c0,2.11,0,3.65-.89,4.87a6.12,6.12,0,0,1-5,2c-2.43,0-4.31-.77-5.3-2s-.89-2.76-.89-4.87V50.22c0-3.43,0-6,5.31-7.41a46,46,0,0,1,11.5-1.22c5.64,0,12.17.66,17.36,3.32,6.64,3.43,10.4,9.51,10.4,17.69,0,9.07-4.65,16-13,19.69L1162.63,108c2.1,2.87,1.44,6.63-5,6.63-5,0-6.52-2.1-8.73-5.31l-11.4-16.81c-2.54-3.76-4.64-7.52-4.64-7.52a43.15,43.15,0,0,1-4.53.22,22,22,0,0,1-3.76-.22Zm0-32.62s1.43.11,3.31.11c10.07,0,16.59-3,16.59-11.94s-6.3-11.28-14-11.28a40,40,0,0,0-5.86.44Z"/></g></g></g><path class="cls-4" d="M84.34,15.39A6.47,6.47,0,0,0,83.86,13a6.5,6.5,0,0,0-3.42-3.42,6.29,6.29,0,0,0-4.82,0,6.24,6.24,0,0,0-2,1.38,6.06,6.06,0,0,0-1.37,2,6.17,6.17,0,0,0,0,4.82,6.06,6.06,0,0,0,1.37,2,6.27,6.27,0,0,0,8.9,0,6.24,6.24,0,0,0,1.38-2,6.51,6.51,0,0,0,.48-2.41M83.05,78a5,5,0,0,0-10,0,5,5,0,0,0,1.48,3.54,5.06,5.06,0,0,0,1.62,1.1,5,5,0,0,0,3.84,0,5.06,5.06,0,0,0,1.62-1.1A5,5,0,0,0,83.05,78Zm4.12-9.14A12.84,12.84,0,0,1,90,73.08,13,13,0,0,1,90,83a13,13,0,0,1-7,7,13,13,0,0,1-9.92,0,13,13,0,0,1-7-7,12.9,12.9,0,0,1,0-9.91,12.93,12.93,0,0,1,11.93-8,13.1,13.1,0,0,1,5,1A12.8,12.8,0,0,1,87.17,68.89ZM147,78a6.32,6.32,0,0,0-.48-2.41,6.46,6.46,0,0,0-1.38-2,6.06,6.06,0,0,0-2-1.37,6.29,6.29,0,0,0-2.41-.49,6.51,6.51,0,0,0-2.41.48,6.4,6.4,0,0,0-2,1.38,6.27,6.27,0,0,0-1.37,2,6.17,6.17,0,0,0,0,4.82,6.44,6.44,0,0,0,3.41,3.42,6.29,6.29,0,0,0,4.82,0,6.24,6.24,0,0,0,2-1.38,6.35,6.35,0,0,0,1.38-2A6.28,6.28,0,0,0,147,78Zm4.58-10.88a15.28,15.28,0,0,1,3.33,5,15.4,15.4,0,0,1-25.1,16.79,15.27,15.27,0,0,1-3.33-5,15.46,15.46,0,0,1,0-11.8,15.39,15.39,0,0,1,25.1-5ZM21.7,78a6.33,6.33,0,0,0-1.86-4.45,6.18,6.18,0,0,0-2.05-1.38,6.27,6.27,0,0,0-4.81,0,6.5,6.5,0,0,0-3.42,3.42,6.24,6.24,0,0,0,1.38,6.86,6.24,6.24,0,0,0,2,1.38,6.29,6.29,0,0,0,4.82,0,6.24,6.24,0,0,0,2-1.38A6.33,6.33,0,0,0,21.7,78Zm62.64,62.64a6.51,6.51,0,0,0-.48-2.41,6.44,6.44,0,0,0-3.42-3.41,6.17,6.17,0,0,0-4.82,0,6.37,6.37,0,0,0-3.41,3.41,6.17,6.17,0,0,0,0,4.82,6.16,6.16,0,0,0,1.37,2,6.46,6.46,0,0,0,2,1.38,6.24,6.24,0,0,0,6.86-1.38,6,6,0,0,0,1.38-2A6.47,6.47,0,0,0,84.34,140.67ZM88.91,4.5a15.46,15.46,0,0,1,4.51,10.88,15.42,15.42,0,0,1-1.84,7.3l12.53,12.53a12.65,12.65,0,1,1-6.26,6.26L85.32,28.94a15.43,15.43,0,0,1-3.08,1.25,15.38,15.38,0,0,1-11.5-1.25L58.21,41.47a12.68,12.68,0,0,1,1,7.07A12.65,12.65,0,0,1,48.54,59.22a12.68,12.68,0,0,1-7.07-1L28.94,70.74a15.38,15.38,0,0,1,0,14.58L41.47,97.85a12.63,12.63,0,0,1,14.17,2.57,12.46,12.46,0,0,1,3.57,7.1,12.67,12.67,0,0,1-1,7.07l12.53,12.53a15.38,15.38,0,0,1,14.58,0L97.85,114.6a12.63,12.63,0,1,1,6.26,6.26L91.59,133.38a15.75,15.75,0,0,1,1.24,3.08,15.36,15.36,0,0,1-.59,10.12,15.38,15.38,0,0,1-8.31,8.31,15.46,15.46,0,0,1-11.8,0,15.36,15.36,0,0,1-9.48-14.21,15.8,15.8,0,0,1,.58-4.22,15.63,15.63,0,0,1,1.24-3.08L52,120.86a12.68,12.68,0,0,1-7.07,1A12.64,12.64,0,0,1,34.2,111.18a12.7,12.7,0,0,1,1-7.07L22.68,91.59a16.27,16.27,0,0,1-3.08,1.24,15.33,15.33,0,0,1-10.11-.59,15.36,15.36,0,0,1-8.32-8.31,15.46,15.46,0,0,1,0-11.8,15.41,15.41,0,0,1,21.51-7.66L35.2,51.94a12.76,12.76,0,0,1-1-7.07A12.65,12.65,0,0,1,44.87,34.2a12.81,12.81,0,0,1,7.08,1L64.48,22.68a14.85,14.85,0,0,1-1.25-3.08,15.33,15.33,0,0,1,.59-10.11,15.36,15.36,0,0,1,8.31-8.32A15.42,15.42,0,0,1,88.91,4.5Z"/><g class="cls-5"><rect class="cls-3" x="235.6" y="6.38" width="50px" height="50px"/></g></g></g></svg>